<svg width="150" height="22" viewBox="0 0 150 22" fill="none" xmlns="http://www.w3.org/2000/svg">
<g clip-path="url(#clip0_4001_3708)">
<path d="M116.569 0.0315332H116.338C116.138 0.0314474 115.945 0.105682 115.802 0.238486C115.658 0.37129 115.574 0.552214 115.568 0.742867C115.568 0.750201 115.568 0.757533 115.568 0.764867C115.568 0.7722 115.568 0.778069 115.568 0.785402V5.6254C115.568 5.81989 115.649 6.00642 115.794 6.14395C115.938 6.28147 116.134 6.35874 116.338 6.35874H121.3C121.504 6.35874 121.7 6.43599 121.845 6.57352C121.989 6.71105 122.07 6.89758 122.07 7.09207V9.9374C122.07 10.1319 121.989 10.3184 121.845 10.4559C121.7 10.5935 121.504 10.6707 121.3 10.6707H116.34C116.135 10.6707 115.94 10.748 115.795 10.8855C115.651 11.0231 115.57 11.2096 115.57 11.4041V15.9097C115.57 16.1042 115.489 16.2907 115.344 16.4282C115.2 16.5657 115.004 16.643 114.8 16.643H111.575C111.371 16.643 111.175 16.5657 111.03 16.4282C110.886 16.2907 110.805 16.1042 110.805 15.9097V11.5375C110.805 11.343 110.724 11.1565 110.579 11.019C110.435 10.8815 110.239 10.8042 110.035 10.8042H105.479C105.419 10.8044 105.36 10.816 105.305 10.8384C105.25 10.8607 105.2 10.8934 105.159 10.9344C105.117 10.9755 105.085 11.0241 105.064 11.0773C105.042 11.1305 105.032 11.1872 105.034 11.2442C105.301 17.6623 111.359 22.8822 118.368 21.8262C121.226 21.3905 123.807 19.9459 125.597 17.7798C127.387 15.6137 128.256 12.8851 128.029 10.137C127.802 7.38893 126.497 4.82293 124.373 2.94979C122.25 1.07664 119.464 0.0337176 116.569 0.0286015V0.0315332Z" fill="#1B59FA"/>
<path d="M106.463 6.35727H110.035C110.239 6.35727 110.435 6.28 110.579 6.14248C110.724 6.00495 110.805 5.81843 110.805 5.62393V2.0262C110.805 1.94638 110.782 1.868 110.739 1.79946C110.696 1.73093 110.635 1.67482 110.561 1.63715C110.487 1.59947 110.404 1.58165 110.32 1.5856C110.236 1.58954 110.155 1.6151 110.086 1.65953C108.426 2.67867 107.048 4.06177 106.066 5.69287C106.024 5.75967 106.002 5.83577 106.001 5.91343C106.001 5.99109 106.022 6.06754 106.062 6.13503C106.102 6.20251 106.161 6.25862 106.231 6.29765C106.302 6.33669 106.382 6.35725 106.463 6.35727Z" fill="#1B59FA"/>
<path d="M91.3063 0.0315332H86.4429C85.5683 0.0338554 84.7303 0.365744 84.1119 0.954681C83.4935 1.54362 83.145 2.34172 83.1425 3.1746V18.8225C83.1454 19.6551 83.4941 20.4528 84.1124 21.0414C84.7308 21.6301 85.5686 21.9617 86.4429 21.9641H91.3063C94.3576 21.9556 97.2815 20.7975 99.4392 18.7428C101.597 16.6881 102.813 13.9038 102.823 10.9978C102.813 8.09185 101.597 5.30748 99.4392 3.25279C97.2815 1.1981 94.3576 0.0400437 91.3063 0.0315332ZM91.3941 16.6474H89.4105C89.2063 16.6474 89.0104 16.5701 88.866 16.4326C88.7216 16.2951 88.6405 16.1086 88.6405 15.9141V6.0874C88.6405 5.89291 88.7216 5.70638 88.866 5.56886C89.0104 5.43133 89.2063 5.35407 89.4105 5.35407H91.2894C94.4249 5.35407 97.0999 7.6318 97.314 10.6106C97.3675 11.383 97.2541 12.1576 96.981 12.8866C96.7079 13.6156 96.2808 14.2836 95.726 14.8493C95.1713 15.415 94.5007 15.8664 93.7556 16.1756C93.0106 16.4849 92.2068 16.6455 91.3941 16.6474Z" fill="#1B59FA"/>
<path d="M145.499 15.5929C144.45 16.3531 143.167 16.7629 141.849 16.7589C141.046 16.7711 140.25 16.6311 139.504 16.3471C138.759 16.0631 138.081 15.6407 137.509 15.1046C136.937 14.5685 136.483 13.9293 136.173 13.2244C135.863 12.5195 135.703 11.7628 135.703 10.9985C135.703 10.2342 135.863 9.47759 136.173 8.77266C136.483 8.06772 136.937 7.42858 137.509 6.89247C138.081 6.35637 138.759 5.93401 139.504 5.65C140.25 5.36599 141.046 5.226 141.849 5.2382C143.168 5.23628 144.451 5.64869 145.499 6.41153C145.786 6.62509 146.115 6.78215 146.467 6.87358C146.818 6.96501 147.185 6.98899 147.547 6.94413C147.908 6.89926 148.257 6.78645 148.572 6.61224C148.887 6.43802 149.163 6.20589 149.383 5.92933C149.603 5.65276 149.763 5.33728 149.854 5.00121C149.946 4.66514 149.966 4.31518 149.913 3.97168C149.861 3.62817 149.738 3.29796 149.551 3.00024C149.363 2.70251 149.116 2.44321 148.822 2.2374C147.109 1.00124 145.067 0.24505 142.926 0.0539106C140.786 -0.137229 138.632 0.244272 136.707 1.15548C134.782 2.06669 133.162 3.47145 132.03 5.21169C130.898 6.95193 130.298 8.95858 130.298 11.0059C130.298 13.0531 130.898 15.0598 132.03 16.8C133.162 18.5403 134.782 19.945 136.707 20.8563C138.632 21.7675 140.786 22.149 142.926 21.9578C145.067 21.7667 147.109 21.0105 148.822 19.7743C149.111 19.5665 149.353 19.3066 149.536 19.0096C149.719 18.7125 149.838 18.384 149.888 18.043C149.937 17.7019 149.916 17.3548 149.825 17.0216C149.733 16.6884 149.574 16.3756 149.356 16.1011C149.138 15.8265 148.865 15.5956 148.553 15.4214C148.241 15.2473 147.896 15.1334 147.538 15.0862C147.18 15.039 146.815 15.0595 146.465 15.1464C146.116 15.2333 145.787 15.385 145.499 15.5929Z" fill="#1B59FA"/>
<path d="M72.6918 16.709H66.775C66.5708 16.709 66.3749 16.6317 66.2305 16.4942C66.0861 16.3567 66.005 16.1702 66.005 15.9757V14.1761C66.005 13.9816 66.0861 13.7951 66.2305 13.6575C66.3749 13.52 66.5708 13.4427 66.775 13.4427H72.7811C74.1764 13.4427 75.3684 12.4161 75.4146 11.0814C75.4262 10.7536 75.3684 10.4269 75.2447 10.1209C75.1209 9.81478 74.9338 9.53554 74.6944 9.29976C74.455 9.06397 74.1683 8.87647 73.8512 8.74841C73.5342 8.62035 73.1933 8.55435 72.8489 8.55434H66.7811C66.5769 8.55434 66.3811 8.47707 66.2367 8.33955C66.0923 8.20202 66.0111 8.01549 66.0111 7.821V6.0214C66.0111 5.82691 66.0923 5.64038 66.2367 5.50286C66.3811 5.36533 66.5769 5.28807 66.7811 5.28807H72.698C73.0672 5.28788 73.4325 5.21695 73.7724 5.0795C74.1122 4.94205 74.4195 4.74089 74.6759 4.488C74.9324 4.23511 75.1329 3.93566 75.2653 3.60747C75.3978 3.27928 75.4596 2.92906 75.447 2.57767C75.3961 1.155 74.1194 0.0491325 72.6256 0.0491325H63.8042C62.93 0.0514528 62.0922 0.383141 61.4738 0.971761C60.8555 1.56038 60.5068 2.35811 60.5039 3.19073V18.8049C60.5064 19.6377 60.8549 20.4358 61.4733 21.0248C62.0917 21.6137 62.9297 21.9456 63.8042 21.9479H72.6194C74.1133 21.9479 75.3915 20.8421 75.4408 19.4194C75.4534 19.068 75.3916 18.7178 75.2592 18.3896C75.1267 18.0614 74.9263 17.762 74.6698 17.5091C74.4133 17.2562 74.106 17.055 73.7662 16.9176C73.4264 16.7801 73.061 16.7092 72.6918 16.709Z" fill="#1B59FA"/>
<path d="M55.7483 8.55434H49.6821C49.4778 8.55434 49.282 8.47707 49.1376 8.33955C48.9932 8.20202 48.912 8.01549 48.912 7.821V6.0214C48.912 5.82691 48.9932 5.64038 49.1376 5.50286C49.282 5.36533 49.4778 5.28807 49.6821 5.28807H55.5974C55.9666 5.28788 56.3319 5.21695 56.6717 5.0795C57.0115 4.94205 57.3188 4.74089 57.5753 4.488C57.8318 4.23511 58.0323 3.93566 58.1647 3.60747C58.2972 3.27928 58.3589 2.92906 58.3463 2.57767C58.2955 1.155 57.0188 0.0491325 55.525 0.0491325H46.7113C45.837 0.0514528 44.9993 0.383141 44.3809 0.971761C43.7625 1.56038 43.4139 2.35811 43.411 3.19073V19.3241C43.4118 20.0197 43.7024 20.6867 44.2189 21.1786C44.7354 21.6705 45.4357 21.9472 46.1662 21.9479C46.2493 21.9479 46.3309 21.9479 46.411 21.9347L46.565 21.9157C47.2165 21.8212 47.811 21.5081 48.2414 21.0329C48.6718 20.5577 48.9096 19.9516 48.912 19.3241V14.1761C48.912 13.9816 48.9932 13.7951 49.1376 13.6575C49.282 13.52 49.4778 13.4427 49.6821 13.4427H55.6759C56.0968 13.4429 56.5116 13.3479 56.8864 13.1655C56.9387 13.1406 56.9911 13.1142 57.0404 13.0863L57.1374 13.0291C57.255 12.9565 57.3667 12.8756 57.4716 12.7871C57.4769 12.7819 57.4825 12.777 57.4885 12.7725C57.7067 12.5817 57.8885 12.3564 58.026 12.1066C58.0537 12.0567 58.0799 12.0039 58.1045 11.9511C58.1529 11.8444 58.1935 11.7346 58.2262 11.6226C58.2339 11.6006 58.2401 11.5771 58.2462 11.5551C58.2826 11.4107 58.3048 11.2634 58.3125 11.1151C58.3289 10.7847 58.2748 10.4545 58.1534 10.1446C58.0319 9.83462 57.8457 9.55138 57.606 9.31197C57.3663 9.07256 57.078 8.88197 56.7587 8.75175C56.4394 8.62152 56.0957 8.55436 55.7483 8.55434Z" fill="#1B59FA"/>
<path d="M40.9916 18.3135L34.3587 3.19073C33.5116 1.25913 31.719 0.0579366 29.6815 0.0579366C27.6441 0.0579366 25.853 1.26207 25.0044 3.19073L18.3715 18.3165C18.2293 18.6365 18.1547 18.98 18.1519 19.3275C18.1492 19.675 18.2183 20.0196 18.3554 20.3416C18.4925 20.6636 18.6948 20.9568 18.9508 21.2043C19.2069 21.4519 19.5116 21.649 19.8476 21.7844C20.1836 21.9198 20.5444 21.9908 20.9092 21.9935C21.2741 21.9961 21.6359 21.9303 21.974 21.7997C22.3122 21.6692 22.62 21.4765 22.88 21.2327C23.1399 20.9888 23.3469 20.6986 23.489 20.3786L28.9623 7.90314C29.0224 7.76861 29.1227 7.65388 29.2507 7.57324C29.3787 7.49259 29.5288 7.44959 29.6823 7.44959C29.8358 7.44959 29.9859 7.49259 30.1139 7.57324C30.2419 7.65388 30.3422 7.76861 30.4023 7.90314L35.8741 20.3786C36.0214 20.7086 36.2373 21.0068 36.5086 21.2554C36.7799 21.504 37.1012 21.6978 37.4531 21.8253C37.805 21.9529 38.1803 22.0114 38.5565 21.9974C38.9327 21.9834 39.3021 21.8973 39.6425 21.7441C40.9577 21.1589 41.546 19.5807 40.9916 18.3135Z" fill="#1B59FA"/>
<path d="M10.1199 8.67167L9.96594 8.64967C8.90023 8.40034 8.29346 8.29327 7.54346 8.17887C7.26669 8.13443 6.99267 8.07568 6.72262 8.00287C5.4721 7.70954 5.3258 6.01407 6.51933 5.53593C7.00272 5.37825 7.50854 5.2917 8.01933 5.27927C8.23802 5.27927 10.2154 5.31593 11.9618 6.06687C13.0968 6.5758 14.5799 6.27367 15.3006 5.291C16.334 3.99007 15.8135 2.013 14.2627 1.35887C7.58042 -1.48353 0.248282 0.445138 -0.0443254 6.919C-0.298432 8.8858 1.26009 12.6009 6.88586 13.3474C8.02549 13.6129 8.62919 13.7141 9.30834 13.8182C9.58518 13.8617 9.85923 13.9199 10.1292 13.9927C11.3612 14.2773 11.5337 15.9302 10.3802 16.4421C9.70827 16.6712 8.99167 16.7568 8.28114 16.6929C7.54346 16.6401 6.1143 16.4685 4.83607 15.9053C4.25393 15.7117 3.2837 15.2511 2.65845 15.2878C2.10627 15.2915 1.56835 15.4552 1.11613 15.7569C0.66391 16.0587 0.318795 16.4844 0.126619 16.9774C-0.287652 18.2079 0.434628 19.9401 2.87097 20.7629C4.76265 21.5143 6.78908 21.9103 8.83863 21.9289C13.6574 21.9186 16.8468 18.8489 16.9023 15.0854C17.0979 13.1259 15.7796 9.5326 10.1199 8.67167Z" fill="#1B59FA"/>
</g>
<defs>
<clipPath id="clip0_4001_3708">
<rect width="150" height="22" fill="white"/>
</clipPath>
</defs>
</svg>
